<?xml version="1.0" encoding="utf-8"?>
<!-- Generator: Adobe Illustrator 27.5.0, SVG Export Plug-In . SVG Version: 6.00 Build 0)  -->
<svg version="1.1" xmlns="http://www.w3.org/2000/svg" xmlns:xlink="http://www.w3.org/1999/xlink" x="0px" y="0px"
	 viewBox="0 0 500 500" style="enable-background:new 0 0 500 500;" xml:space="preserve">
<g id="BACKGROUND">
	<rect style="fill:#F7F7F7;" width="500" height="500"/>
</g>
<g id="OBJECTS">
	<g>
		<path style="fill:#BD9E80;" d="M250,103.616c-80.716,0-146.384,65.668-146.384,146.384c0,23.461,5.687,46.792,16.445,67.473
			c3.279,6.3,11.043,8.747,17.338,5.471c6.297-3.278,8.748-11.039,5.471-17.338c-8.987-17.274-13.544-35.983-13.544-55.606
			c0-66.54,54.134-120.674,120.674-120.674S370.674,183.46,370.674,250c0,66.539-54.134,120.674-120.674,120.674
			c-20.818,0-40.994-5.276-58.931-15.338l59.272-146.796l37.993,92.586c-15.548-6.843-31.029-18.293-37.513-23.803v0.001
			c-5.403-4.6-13.51-3.952-18.115,1.448c-4.606,5.403-3.96,13.517,1.443,18.123c4.256,3.628,42.53,35.444,75.615,35.444
			c4.285,0,8.29-2.136,10.677-5.696c2.387-3.56,2.843-8.074,1.216-12.039l-59.518-145.04c-0.01-0.024-0.023-0.046-0.033-0.07
			c-0.104-0.248-0.224-0.488-0.343-0.729c-0.07-0.143-0.133-0.292-0.208-0.431c-0.11-0.204-0.237-0.398-0.358-0.595
			c-0.465-0.761-0.998-1.46-1.593-2.093c-0.098-0.105-0.188-0.216-0.291-0.318c-0.155-0.154-0.323-0.293-0.485-0.438
			c-0.201-0.181-0.403-0.359-0.617-0.528c-0.272-0.214-0.547-0.424-0.834-0.615c-0.124-0.083-0.259-0.153-0.387-0.232
			c-0.233-0.143-0.464-0.29-0.705-0.418c-0.121-0.064-0.25-0.117-0.373-0.177c-0.261-0.128-0.522-0.257-0.791-0.367
			c-0.022-0.009-0.041-0.021-0.063-0.029c-0.125-0.05-0.252-0.084-0.377-0.131c-0.251-0.093-0.502-0.186-0.758-0.263
			c-0.183-0.055-0.366-0.096-0.55-0.142c-0.222-0.056-0.443-0.114-0.668-0.158c-0.203-0.04-0.406-0.066-0.609-0.096
			c-0.211-0.031-0.42-0.064-0.633-0.084c-0.207-0.02-0.414-0.027-0.62-0.037c-0.212-0.01-0.423-0.022-0.636-0.021
			c-0.204,0.001-0.407,0.013-0.61,0.024c-0.215,0.011-0.43,0.02-0.646,0.042c-0.204,0.021-0.405,0.054-0.607,0.084
			c-0.211,0.032-0.422,0.061-0.633,0.103c-0.217,0.044-0.429,0.101-0.643,0.156c-0.191,0.049-0.382,0.093-0.572,0.151
			c-0.249,0.076-0.492,0.168-0.735,0.259c-0.131,0.049-0.263,0.085-0.393,0.139c-0.022,0.009-0.043,0.021-0.065,0.031
			c-0.265,0.111-0.522,0.239-0.779,0.367c-0.126,0.063-0.257,0.117-0.38,0.184c-0.242,0.131-0.475,0.279-0.708,0.425
			c-0.125,0.078-0.257,0.148-0.379,0.23c-0.343,0.231-0.676,0.479-0.996,0.743c-0.127,0.104-0.24,0.221-0.363,0.33
			c-0.192,0.171-0.388,0.338-0.571,0.522c-0.052,0.052-0.097,0.111-0.148,0.164c-0.682,0.71-1.283,1.51-1.796,2.384
			c-0.091,0.154-0.189,0.304-0.274,0.461c-0.086,0.161-0.157,0.332-0.237,0.498c-0.105,0.22-0.215,0.438-0.308,0.664
			c-0.011,0.026-0.025,0.05-0.036,0.077l-75.082,185.952c-0.81,1.931-1.147,4.055-0.945,6.19c0.362,3.815,2.407,7.27,5.578,9.423
			c24.276,16.479,52.673,25.19,82.123,25.19c80.716,0,146.384-65.668,146.384-146.384C396.384,169.283,330.716,103.616,250,103.616z
			"/>
		<g>
			<path style="fill:none;stroke:#434960;stroke-width:1.2;stroke-linecap:round;stroke-linejoin:round;stroke-miterlimit:10;" d="
				M250,103.616c-80.716,0-146.384,65.668-146.384,146.384c0,23.461,5.687,46.792,16.445,67.473
				c3.279,6.3,11.043,8.747,17.338,5.471c6.297-3.278,8.748-11.039,5.471-17.338c-8.987-17.274-13.544-35.983-13.544-55.606
				c0-66.54,54.134-120.674,120.674-120.674S370.674,183.46,370.674,250c0,66.539-54.134,120.674-120.674,120.674
				c-20.818,0-40.994-5.276-58.931-15.338l59.272-146.796l37.993,92.586c-15.548-6.843-31.029-18.293-37.513-23.803v0.001
				c-5.403-4.6-13.51-3.952-18.115,1.448c-4.606,5.403-3.96,13.517,1.443,18.123c4.256,3.628,42.53,35.444,75.615,35.444
				c4.285,0,8.29-2.136,10.677-5.696c2.387-3.56,2.843-8.074,1.216-12.039l-59.518-145.04c-0.01-0.024-0.023-0.046-0.033-0.07
				c-0.104-0.248-0.224-0.488-0.343-0.729c-0.07-0.143-0.133-0.292-0.208-0.431c-0.11-0.204-0.237-0.398-0.358-0.595
				c-0.465-0.761-0.998-1.46-1.593-2.093c-0.098-0.105-0.188-0.216-0.291-0.318c-0.155-0.154-0.323-0.293-0.485-0.438
				c-0.201-0.181-0.403-0.359-0.617-0.528c-0.272-0.214-0.547-0.424-0.834-0.615c-0.124-0.083-0.259-0.153-0.387-0.232
				c-0.233-0.143-0.464-0.29-0.705-0.418c-0.121-0.064-0.25-0.117-0.373-0.177c-0.261-0.128-0.522-0.257-0.791-0.367
				c-0.022-0.009-0.041-0.021-0.063-0.029c-0.125-0.05-0.252-0.084-0.377-0.131c-0.251-0.093-0.502-0.186-0.758-0.263
				c-0.183-0.055-0.366-0.096-0.55-0.142c-0.222-0.056-0.443-0.114-0.668-0.158c-0.203-0.04-0.406-0.066-0.609-0.096
				c-0.211-0.031-0.42-0.064-0.633-0.084c-0.207-0.02-0.414-0.027-0.62-0.037c-0.212-0.01-0.423-0.022-0.636-0.021
				c-0.204,0.001-0.407,0.013-0.61,0.024c-0.215,0.011-0.43,0.02-0.646,0.042c-0.204,0.021-0.405,0.054-0.607,0.084
				c-0.211,0.032-0.422,0.061-0.633,0.103c-0.217,0.044-0.429,0.101-0.643,0.156c-0.191,0.049-0.382,0.093-0.572,0.151
				c-0.249,0.076-0.492,0.168-0.735,0.259c-0.131,0.049-0.263,0.085-0.393,0.139c-0.022,0.009-0.043,0.021-0.065,0.031
				c-0.265,0.111-0.522,0.239-0.779,0.367c-0.126,0.063-0.257,0.117-0.38,0.184c-0.242,0.131-0.475,0.279-0.708,0.425
				c-0.125,0.078-0.257,0.148-0.379,0.23c-0.343,0.231-0.676,0.479-0.996,0.743c-0.127,0.104-0.24,0.221-0.363,0.33
				c-0.192,0.171-0.388,0.338-0.571,0.522c-0.052,0.052-0.097,0.111-0.148,0.164c-0.682,0.71-1.283,1.51-1.796,2.384
				c-0.091,0.154-0.189,0.304-0.274,0.461c-0.086,0.161-0.157,0.332-0.237,0.498c-0.105,0.22-0.215,0.438-0.308,0.664
				c-0.011,0.026-0.025,0.05-0.036,0.077l-75.082,185.952c-0.81,1.931-1.147,4.055-0.945,6.19c0.362,3.815,2.407,7.27,5.578,9.423
				c24.276,16.479,52.673,25.19,82.123,25.19c80.716,0,146.384-65.668,146.384-146.384C396.384,169.283,330.716,103.616,250,103.616
				z"/>
			<g>
				<path style="fill:none;stroke:#434960;stroke-width:1.2;stroke-linecap:round;stroke-linejoin:round;stroke-miterlimit:10;" d="
					M250,285.678c3.231,2.538,7.371,5.585,12.067,8.718"/>
				<path style="fill:none;stroke:#434960;stroke-width:1.2;stroke-linecap:round;stroke-linejoin:round;stroke-miterlimit:10;" d="
					M300.716,324.497c-12.414-2.189-25.714-8.384-37.367-15.363"/>
				
					<line style="fill:none;stroke:#434960;stroke-width:1.2;stroke-linecap:round;stroke-linejoin:round;stroke-miterlimit:10;" x1="258.548" y1="179.251" x2="274.758" y2="218.755"/>
				
					<line style="fill:none;stroke:#434960;stroke-width:1.2;stroke-linecap:round;stroke-linejoin:round;stroke-miterlimit:10;" x1="183.342" y1="324.497" x2="204.286" y2="272.629"/>
				<path style="fill:none;stroke:#434960;stroke-width:1.2;stroke-linecap:round;stroke-linejoin:round;stroke-miterlimit:10;" d="
					M352.561,344.293c-18.586,20.2-43.048,34.915-70.645,41.404"/>
				<path style="fill:none;stroke:#434960;stroke-width:1.2;stroke-linecap:round;stroke-linejoin:round;stroke-miterlimit:10;" d="
					M311.336,124.85c17.19,8.459,32.395,20.358,44.712,34.792"/>
				<path style="fill:none;stroke:#434960;stroke-width:1.2;stroke-linecap:round;stroke-linejoin:round;stroke-miterlimit:10;" d="
					M127.112,184.267c15.747-29.321,41.683-52.39,73.039-64.439"/>
				<path style="fill:none;stroke:#434960;stroke-width:1.2;stroke-linecap:round;stroke-linejoin:round;stroke-miterlimit:10;" d="
					M116.478,290.038c-3.864-12.941-5.862-26.466-5.862-40.037"/>
				<path style="fill:none;stroke:#434960;stroke-width:1.2;stroke-linecap:round;stroke-linejoin:round;stroke-miterlimit:10;" d="
					M124.302,272.629c1.805,10.148,4.842,19.994,9.095,29.467"/>
				<path style="fill:none;stroke:#434960;stroke-width:1.2;stroke-linecap:round;stroke-linejoin:round;stroke-miterlimit:10;" d="
					M224.685,124.847c-26.02,5.255-49.199,18.446-66.891,36.93"/>
				<path style="fill:none;stroke:#434960;stroke-width:1.2;stroke-linecap:round;stroke-linejoin:round;stroke-miterlimit:10;" d="
					M375.928,228.889c-6.937-41.518-33.98-76.316-70.745-94.011"/>
				<path style="fill:none;stroke:#434960;stroke-width:1.2;stroke-linecap:round;stroke-linejoin:round;stroke-miterlimit:10;" d="
					M206.831,370.179c13.774,4.934,28.403,7.495,43.169,7.495"/>
				
					<line style="fill:none;stroke:#434960;stroke-width:1.2;stroke-linecap:round;stroke-linejoin:round;stroke-miterlimit:10;" x1="239.719" y1="216.151" x2="225.285" y2="251.898"/>
				
					<line style="fill:none;stroke:#434960;stroke-width:1.2;stroke-linecap:round;stroke-linejoin:round;stroke-miterlimit:10;" x1="288.91" y1="284.089" x2="274.921" y2="250"/>
			</g>
		</g>
	</g>
</g>
</svg>
